<?xml version="1.0" encoding="utf-8"?>
<!-- Generator: Adobe Illustrator 24.0.0, SVG Export Plug-In . SVG Version: 6.00 Build 0)  -->
<svg version="1.1" id="Capa_1" xmlns="http://www.w3.org/2000/svg" xmlns:xlink="http://www.w3.org/1999/xlink" x="0px" y="0px"
	 viewBox="0 0 50 50" style="enable-background:new 0 0 50 50;" xml:space="preserve">
<style type="text/css">
	.st0{fill-rule:evenodd;clip-rule:evenodd;}
</style>
<g>
	<path class="st0" d="M40.8,10.39c0-0.01,0-0.02,0-0.03c0-0.04-0.01-0.08-0.02-0.12c0,0,0,0,0,0c-0.01-0.04-0.02-0.08-0.03-0.12
		c0-0.01-0.01-0.02-0.01-0.03c-0.01-0.04-0.03-0.07-0.05-0.11c0,0,0,0,0-0.01c-0.02-0.04-0.04-0.07-0.06-0.1
		c-0.01-0.01-0.01-0.02-0.02-0.02c-0.03-0.03-0.05-0.06-0.08-0.09l-8.48-8.48c-0.03-0.03-0.06-0.06-0.09-0.08
		c-0.01-0.01-0.02-0.01-0.03-0.02c-0.03-0.02-0.07-0.05-0.1-0.06c0,0-0.01,0-0.01,0c-0.03-0.02-0.07-0.03-0.1-0.05
		c-0.01,0-0.02-0.01-0.03-0.01c-0.04-0.01-0.08-0.02-0.12-0.03c0,0,0,0,0,0C31.52,1.01,31.48,1.01,31.44,1c-0.01,0-0.02,0-0.03,0
		c-0.01,0-0.02,0-0.03,0H10.14C9.62,1,9.2,1.42,9.2,1.94v40.13c0,0.52,0.42,0.94,0.94,0.94h14.11v5.06c0,0.34,0.19,0.66,0.48,0.82
		c0.3,0.17,0.66,0.16,0.95-0.03l3.57-2.24l3.57,2.24c0.15,0.1,0.33,0.14,0.5,0.14c0.16,0,0.31-0.04,0.45-0.12
		c0.3-0.17,0.48-0.48,0.48-0.82V43h5.6c0.52,0,0.94-0.42,0.94-0.94V10.42C40.8,10.41,40.8,10.4,40.8,10.39z M32.32,4.2l5.28,5.28
		h-5.28V4.2z M23.79,29.96c-0.07-0.18-0.17-0.47-0.18-0.59c0.07-0.09,0.33-0.25,0.48-0.35c0.33-0.21,0.71-0.45,0.99-0.82
		c0.28-0.38,0.39-0.82,0.49-1.2c0.04-0.17,0.11-0.44,0.17-0.54c0.03-0.01,0.1-0.02,0.23-0.02c0.1,0,0.22,0.01,0.34,0.01
		c0.14,0.01,0.29,0.01,0.44,0.01c0.34,0,0.61-0.04,0.86-0.12c0.43-0.14,0.78-0.42,1.08-0.67c0.17-0.14,0.45-0.36,0.55-0.38
		c0.11,0.01,0.39,0.24,0.56,0.38c0.3,0.25,0.65,0.52,1.08,0.67c0.25,0.08,0.52,0.12,0.86,0.12c0.15,0,0.3-0.01,0.44-0.01
		c0.12-0.01,0.24-0.01,0.35-0.01c0.13,0,0.2,0.01,0.23,0.02c0.06,0.1,0.13,0.38,0.17,0.54c0.1,0.39,0.21,0.82,0.49,1.2
		c0.27,0.37,0.65,0.61,0.99,0.82c0.16,0.1,0.41,0.26,0.48,0.35c0,0.12-0.11,0.41-0.18,0.59c-0.14,0.38-0.3,0.81-0.3,1.29
		c0,0.48,0.16,0.91,0.3,1.29c0.07,0.18,0.17,0.47,0.18,0.59c-0.07,0.09-0.33,0.25-0.48,0.35c-0.33,0.21-0.71,0.45-0.99,0.82
		c-0.28,0.38-0.39,0.82-0.49,1.2c-0.04,0.17-0.11,0.44-0.17,0.54c-0.03,0.01-0.1,0.02-0.23,0.02c-0.1,0-0.22-0.01-0.35-0.01
		c-0.14-0.01-0.29-0.01-0.44-0.01c-0.34,0-0.61,0.04-0.86,0.12c-0.43,0.14-0.78,0.42-1.08,0.67c-0.17,0.13-0.44,0.36-0.55,0.38
		c-0.11-0.02-0.39-0.24-0.55-0.38c-0.31-0.24-0.65-0.52-1.08-0.67c-0.25-0.08-0.52-0.12-0.86-0.12c-0.15,0-0.3,0.01-0.44,0.01
		c-0.12,0.01-0.24,0.01-0.34,0.01c-0.13,0-0.2-0.01-0.23-0.02c-0.06-0.1-0.13-0.38-0.17-0.54c-0.1-0.39-0.21-0.82-0.49-1.2
		c-0.27-0.37-0.65-0.61-0.99-0.82c-0.16-0.1-0.41-0.26-0.48-0.35c0-0.12,0.11-0.41,0.18-0.59c0.14-0.38,0.3-0.81,0.3-1.29
		C24.09,30.77,23.93,30.34,23.79,29.96z M32.39,46.37l-2.63-1.65c-0.3-0.19-0.69-0.19-1,0l-2.63,1.65v-8.44
		c0.1,0,0.2-0.01,0.29-0.01c0.12-0.01,0.24-0.01,0.35-0.01c0.17,0,0.24,0.02,0.26,0.02c0.11,0.04,0.33,0.21,0.5,0.35
		c0.44,0.35,0.98,0.79,1.73,0.79c0.75,0,1.29-0.44,1.73-0.79c0.17-0.14,0.39-0.31,0.5-0.35c0.03-0.01,0.1-0.02,0.27-0.02
		c0.11,0,0.22,0.01,0.35,0.01c0.09,0,0.19,0.01,0.29,0.01L32.39,46.37L32.39,46.37z M34.27,41.13v-3.95
		c0.28-0.38,0.4-0.83,0.49-1.21c0.05-0.2,0.12-0.47,0.19-0.56c0.06-0.09,0.3-0.24,0.48-0.35c0.46-0.29,1.04-0.65,1.26-1.34
		c0.23-0.68-0.01-1.32-0.2-1.83c-0.09-0.23-0.18-0.5-0.18-0.64s0.1-0.41,0.18-0.64c0.19-0.51,0.42-1.15,0.2-1.83
		c-0.23-0.69-0.8-1.05-1.26-1.34c-0.17-0.11-0.41-0.26-0.48-0.35c-0.06-0.09-0.14-0.36-0.19-0.56c-0.13-0.52-0.3-1.17-0.88-1.59
		c-0.46-0.33-0.99-0.37-1.34-0.37c-0.15,0-0.3,0.01-0.44,0.01c-0.12,0.01-0.24,0.01-0.35,0.01c-0.17,0-0.24-0.02-0.27-0.02
		c-0.11-0.04-0.33-0.21-0.5-0.35c-0.44-0.35-0.98-0.79-1.73-0.79c-0.75,0-1.29,0.44-1.73,0.79c-0.17,0.14-0.39,0.31-0.5,0.35
		c-0.03,0.01-0.1,0.02-0.27,0.02c-0.11,0-0.22-0.01-0.35-0.01c-0.14-0.01-0.29-0.01-0.44-0.01c-0.36,0-0.89,0.04-1.34,0.37
		c-0.57,0.42-0.74,1.07-0.88,1.59c-0.05,0.2-0.12,0.47-0.19,0.56c-0.06,0.09-0.3,0.24-0.48,0.35c-0.46,0.29-1.04,0.65-1.26,1.34
		c-0.23,0.68,0.01,1.32,0.2,1.83c0.09,0.23,0.18,0.5,0.18,0.64s-0.1,0.41-0.18,0.64c-0.19,0.51-0.42,1.15-0.2,1.83
		c0.23,0.69,0.8,1.05,1.26,1.34c0.17,0.11,0.41,0.26,0.48,0.35c0.06,0.09,0.13,0.36,0.19,0.56c0.1,0.38,0.22,0.83,0.49,1.21v3.95
		H11.08V2.87h19.37v7.55c0,0.52,0.42,0.94,0.94,0.94h7.55v29.77H34.27z"/>
	<path class="st0" d="M14.72,11.36H26.8c0.52,0,0.94-0.42,0.94-0.94s-0.42-0.94-0.94-0.94H14.72c-0.52,0-0.94,0.42-0.94,0.94
		S14.2,11.36,14.72,11.36z"/>
	<path class="st0" d="M35.39,14.22H14.72c-0.52,0-0.94,0.42-0.94,0.94s0.42,0.94,0.94,0.94h20.67c0.52,0,0.94-0.42,0.94-0.94
		S35.9,14.22,35.39,14.22z"/>
	<path class="st0" d="M31.64,18.95H14.72c-0.52,0-0.94,0.42-0.94,0.94c0,0.52,0.42,0.94,0.94,0.94h16.92c0.52,0,0.94-0.42,0.94-0.94
		C32.57,19.37,32.15,18.95,31.64,18.95z"/>
	<path class="st0" d="M35.39,18.95c-0.52,0-0.94,0.42-0.94,0.94c0,0.52,0.42,0.94,0.94,0.94c0.52,0,0.94-0.42,0.94-0.94
		C36.32,19.37,35.9,18.95,35.39,18.95z"/>
</g>
</svg>
