<?xml version="1.0" encoding="utf-8"?>
<!-- Generator: Adobe Illustrator 24.0.0, SVG Export Plug-In . SVG Version: 6.00 Build 0)  -->
<svg version="1.1" id="Capa_1" xmlns="http://www.w3.org/2000/svg" xmlns:xlink="http://www.w3.org/1999/xlink" x="0px" y="0px"
	 viewBox="0 0 50 50" style="enable-background:new 0 0 50 50;" xml:space="preserve">
<g>
	<g>
		<g>
			<path d="M43.59,25.24l-5.22-8.06c-0.4-0.63-1.09-1-1.84-1H13.49c-0.74,0-1.43,0.37-1.83,1l-5.24,8.07
				c-0.54,0.82-0.45,1.91,0.2,2.65l16.75,18.8c0.41,0.47,1.01,0.73,1.63,0.73c0,0,0,0,0,0c0.62,0,1.22-0.27,1.63-0.73l16.75-18.81
				C44.04,27.16,44.12,26.07,43.59,25.24z M35.47,18.06l-4.39,6.79l-4.39-6.79H35.47z M29.36,25.64h-8.71L25,18.9L29.36,25.64z
				 M23.31,18.06l-4.38,6.77l-4.38-6.77H23.31z M12.82,18.83l4.4,6.81H8.4L12.82,18.83z M8.79,27.51h9.44l4.99,16.19L8.79,27.51z
				 M25,43.13l-4.81-15.61h9.62L25,43.13z M26.78,43.71l4.99-16.19h9.44L26.78,43.71z M32.8,25.64l4.4-6.8l4.41,6.8H32.8z"/>
		</g>
	</g>
	<g>
		<g>
			<path d="M3.84,25.64H1.94C1.42,25.64,1,26.06,1,26.57s0.42,0.94,0.94,0.94h1.91c0.52,0,0.94-0.42,0.94-0.94
				S4.36,25.64,3.84,25.64z"/>
		</g>
	</g>
	<g>
		<g>
			<path d="M48.06,25.64h-1.91c-0.52,0-0.94,0.42-0.94,0.94s0.42,0.94,0.94,0.94h1.91c0.52,0,0.94-0.42,0.94-0.94
				S48.58,25.64,48.06,25.64z"/>
		</g>
	</g>
	<g>
		<g>
			<path d="M41.98,9.61c-0.37-0.37-0.96-0.37-1.33,0l-3.11,3.11c-0.37,0.37-0.37,0.96,0,1.33c0.18,0.18,0.42,0.27,0.66,0.27
				c0.24,0,0.48-0.09,0.66-0.27l3.11-3.11C42.35,10.57,42.35,9.97,41.98,9.61z"/>
		</g>
	</g>
	<g>
		<g>
			<path d="M12.5,12.71L9.38,9.59c-0.37-0.37-0.96-0.37-1.33,0c-0.37,0.37-0.37,0.96,0,1.33l3.11,3.11
				c0.18,0.18,0.42,0.27,0.66,0.27c0.24,0,0.48-0.09,0.66-0.27C12.86,13.67,12.86,13.07,12.5,12.71z"/>
		</g>
	</g>
	<g>
		<g>
			<path d="M25.02,2.57c-0.52,0-0.94,0.42-0.94,0.94v6.11c0,0.52,0.42,0.94,0.94,0.94c0.52,0,0.94-0.42,0.94-0.94V3.51
				C25.96,2.99,25.54,2.57,25.02,2.57z"/>
		</g>
	</g>
	<g>
		<g>
			<path d="M25.69,12.13c-0.17-0.17-0.42-0.27-0.66-0.27s-0.49,0.1-0.66,0.27c-0.17,0.17-0.27,0.42-0.27,0.66
				c0,0.25,0.1,0.49,0.27,0.66c0.17,0.18,0.42,0.27,0.66,0.27s0.49-0.1,0.66-0.27c0.18-0.17,0.27-0.42,0.27-0.66
				S25.86,12.3,25.69,12.13z"/>
		</g>
	</g>
</g>
</svg>
