<?xml version="1.0" encoding="utf-8"?>
<!-- Generator: Adobe Illustrator 24.0.0, SVG Export Plug-In . SVG Version: 6.00 Build 0)  -->
<svg version="1.1" id="Capa_1" xmlns="http://www.w3.org/2000/svg" xmlns:xlink="http://www.w3.org/1999/xlink" x="0px" y="0px"
	 viewBox="0 0 50 50" style="enable-background:new 0 0 50 50;" xml:space="preserve">
<g>
	<g>
		<path d="M33.32,23.57h-0.15c-0.33,0-0.63,0.13-0.87,0.38l-7.5,8.47l-7.5-8.47c-0.23-0.25-0.54-0.38-0.87-0.38h-0.15
			c-0.45,0-0.85,0.26-1.05,0.67c-0.19,0.42-0.11,0.89,0.19,1.24l0,0l8.42,9.5c0.13,0.19,0.32,0.34,0.55,0.42
			c0.13,0.05,0.27,0.08,0.4,0.08c0,0,0,0,0.01,0c0,0,0,0,0.01,0c0.13,0,0.26-0.03,0.4-0.08c0.23-0.08,0.42-0.23,0.55-0.42l8.42-9.5
			l0,0c0.3-0.35,0.38-0.82,0.19-1.24C34.17,23.82,33.77,23.57,33.32,23.57z"/>
		<path d="M34.79,20.65l-2.49-3.33c-0.09-0.12-0.19-0.22-0.3-0.32c-0.22-0.28-0.55-0.45-0.9-0.45h-0.32H18.83h-0.32
			c-0.35,0-0.68,0.16-0.9,0.45c-0.11,0.09-0.21,0.2-0.3,0.32l-2.49,3.33c-0.26,0.35-0.3,0.81-0.1,1.21c0.2,0.38,0.6,0.63,1.02,0.63
			h0.15c0.37,0,0.7-0.17,0.92-0.46l2.12-2.85c0.09-0.13,0.24-0.2,0.4-0.2h10.94c0.16,0,0.31,0.08,0.4,0.2l2.12,2.85
			c0.21,0.29,0.55,0.46,0.92,0.46h0.15c0.42,0,0.83-0.25,1.02-0.63C35.09,21.47,35.05,21.01,34.79,20.65z"/>
	</g>
	<g>
		<g>
			<path d="M25,7.79C15.51,7.79,7.79,15.51,7.79,25S15.51,42.21,25,42.21S42.21,34.49,42.21,25S34.49,7.79,25,7.79z M40.33,27.67
				c-0.03,0.15-0.06,0.31-0.09,0.47l-0.09,0.42c-0.04,0.18-0.09,0.34-0.13,0.5c-0.03,0.17-0.09,0.37-0.15,0.54
				c-0.06,0.22-0.12,0.41-0.19,0.58c-0.07,0.21-0.17,0.48-0.29,0.74l-0.21,0.51c-0.43,0.94-0.97,1.86-1.61,2.75h0.06l-0.72,0.85
				c-0.15,0.17-0.32,0.36-0.48,0.53L36.3,35.7c-0.39,0.41-0.82,0.81-1.31,1.24l-0.85,0.73v-0.08c-0.59,0.44-1.24,0.83-1.93,1.19
				l-0.15,0.08c-0.1,0.05-0.2,0.1-0.32,0.15c-0.17,0.09-0.36,0.17-0.55,0.27c-0.34,0.14-0.68,0.29-1.05,0.41
				c-0.39,0.14-0.83,0.27-1.26,0.38c-0.39,0.1-0.78,0.18-1.17,0.26c-0.26,0.04-0.52,0.08-0.76,0.12c-0.34,0.04-0.67,0.07-0.98,0.09
				c-0.38,0.01-0.67,0.02-0.97,0.02s-0.59-0.01-0.89-0.02c-0.39-0.02-0.73-0.05-1.03-0.09c-0.27-0.04-0.53-0.08-0.78-0.12
				c-0.41-0.07-0.8-0.15-1.17-0.26c-0.45-0.11-0.88-0.23-1.29-0.39c-0.35-0.11-0.69-0.26-1.03-0.4c-0.19-0.09-0.38-0.17-0.56-0.27
				c-0.1-0.05-0.2-0.1-0.32-0.15l-0.13-0.07c-0.7-0.37-1.35-0.77-1.94-1.21v0.05l-0.85-0.69c-0.49-0.43-0.92-0.83-1.31-1.24
				c-0.43-0.47-0.83-0.94-1.16-1.4c-0.68-0.93-1.26-1.89-1.7-2.85l-0.09-0.2c-0.05-0.11-0.09-0.21-0.14-0.34
				c-0.1-0.27-0.2-0.51-0.3-0.78c-0.05-0.12-0.11-0.31-0.16-0.5l-0.07-0.21c-0.03-0.12-0.07-0.25-0.1-0.38
				c-0.03-0.14-0.08-0.3-0.12-0.48l-0.21-1.08c-0.04-0.23-0.07-0.46-0.1-0.7l-0.07-0.87C9.46,25.56,9.45,25.27,9.45,25
				s0.01-0.56,0.02-0.84l0.3-2.28l0.09-0.45c0.04-0.18,0.09-0.34,0.13-0.5c0.02-0.11,0.06-0.23,0.09-0.36l0.06-0.18
				c0.07-0.2,0.12-0.37,0.17-0.53c0.09-0.27,0.19-0.51,0.3-0.77c0.05-0.13,0.09-0.23,0.14-0.35l0.08-0.18
				c0.48-1.05,1.05-2.01,1.71-2.87c0.14-0.19,0.29-0.38,0.44-0.56l0.29-0.35c0.15-0.16,0.3-0.33,0.45-0.47
				c0.2-0.22,0.41-0.44,0.63-0.64l0.23-0.21c0.14-0.12,0.29-0.26,0.44-0.38c2.77-2.34,6.31-3.64,9.98-3.64s7.21,1.3,9.98,3.65
				c0.15,0.11,0.3,0.25,0.44,0.37l0.22,0.19c0.2,0.18,0.42,0.4,0.67,0.68c0.36,0.37,0.75,0.82,1.14,1.36
				c0.65,0.86,1.23,1.82,1.7,2.85l0.22,0.53c0.11,0.26,0.21,0.52,0.31,0.78c0.05,0.17,0.1,0.34,0.16,0.5
				c0.07,0.21,0.13,0.41,0.17,0.6c0.03,0.14,0.08,0.3,0.12,0.48l0.09,0.44c0.03,0.14,0.06,0.3,0.09,0.45l0.03,0.19
				c0.04,0.26,0.06,0.48,0.09,0.69l0.08,0.88c0.01,0.36,0.02,0.63,0.02,0.91s-0.01,0.55-0.02,0.82L40.33,27.67z"/>
		</g>
	</g>
	<g>
		<g>
			<path d="M38.84,44.61c-0.44,0.28-0.9,0.14-1.12-0.21c-0.23-0.37-0.13-0.84,0.2-1.07c0.15-0.09,0.32-0.14,0.47-0.14
				c0.06,0,0.11,0.01,0.16,0.02c0.2,0.04,0.38,0.16,0.49,0.35C39.28,43.9,39.19,44.37,38.84,44.61z"/>
		</g>
	</g>
	<g>
		<g>
			<path d="M35.85,46.15c-0.07,0.2-0.2,0.37-0.39,0.46c-0.47,0.22-0.9,0.02-1.08-0.37c-0.18-0.39-0.02-0.86,0.38-1.04v-0.01
				c0.11-0.05,0.22-0.07,0.34-0.07c0.3,0,0.57,0.15,0.72,0.43C35.9,45.74,35.92,45.96,35.85,46.15z"/>
		</g>
	</g>
	<g>
		<g>
			<path d="M32.31,47.63c-0.1,0.18-0.26,0.32-0.46,0.38c-4.83,1.44-10.14,1.3-14.9-0.39c-0.41-0.15-0.62-0.6-0.48-1.01
				c0.11-0.33,0.42-0.52,0.75-0.52c0.09,0,0.17,0.01,0.27,0.04c4.44,1.58,9.39,1.72,13.92,0.37c0.07-0.02,0.15-0.03,0.22-0.03
				c0.12,0,0.26,0.03,0.37,0.09c0.18,0.1,0.33,0.27,0.39,0.47C32.43,47.23,32.41,47.44,32.31,47.63z"/>
		</g>
	</g>
	<g>
		<g>
			<path d="M11.77,6.89c-0.36,0.23-0.86,0.13-1.09-0.22c-0.12-0.17-0.16-0.38-0.12-0.59c0.04-0.2,0.16-0.38,0.34-0.5
				c0.13-0.08,0.29-0.13,0.44-0.13c0.05,0,0.1,0.01,0.15,0.02c0.21,0.04,0.39,0.16,0.5,0.34C12.23,6.16,12.13,6.65,11.77,6.89z"/>
		</g>
	</g>
	<g>
		<g>
			<path d="M15.11,4.6c-0.07,0.2-0.2,0.37-0.39,0.46c-0.4,0.2-0.88,0.04-1.07-0.34c-0.09-0.18-0.11-0.4-0.05-0.59
				c0.06-0.2,0.2-0.37,0.39-0.47c0.11-0.05,0.23-0.08,0.37-0.08c0.07,0,0.15,0.01,0.23,0.03c0.2,0.06,0.37,0.2,0.46,0.39
				C15.15,4.2,15.18,4.4,15.11,4.6z"/>
		</g>
	</g>
	<g>
		<g>
			<path d="M34.48,3.47c0,0.1-0.02,0.19-0.06,0.3c-0.15,0.39-0.62,0.59-1.02,0.43C30.72,3.12,27.9,2.57,25,2.57
				c-2.48,0-4.91,0.41-7.24,1.19c-0.2,0.07-0.42,0.06-0.6-0.03c-0.19-0.09-0.34-0.26-0.4-0.46c-0.07-0.19-0.05-0.41,0.04-0.6
				c0.09-0.18,0.25-0.33,0.45-0.4c5.4-1.84,11.44-1.67,16.73,0.46c0.2,0.08,0.35,0.22,0.43,0.43C34.46,3.27,34.48,3.37,34.48,3.47z"
				/>
		</g>
	</g>
	<g>
		<g>
			<path d="M44.4,10.87l-0.19-0.27l0.16-0.3c0.31-0.52,0.47-1.11,0.47-1.73c0-0.92-0.36-1.78-1-2.43c-1.3-1.29-3.55-1.3-4.85,0
				c-0.65,0.65-1.01,1.51-1.01,2.43c0,0.92,0.36,1.78,1.01,2.42c0.93,0.94,2.43,1.26,3.66,0.78l0.37-0.14l0.23,0.33
				c2.73,3.81,4.18,8.31,4.18,13.03c0,2.92-0.55,5.76-1.64,8.44c-0.08,0.19-0.08,0.41,0,0.6c0.08,0.19,0.23,0.35,0.43,0.43
				c0.4,0.15,0.87-0.04,1.03-0.44C48.41,31.16,49,28.12,49,25C49,19.87,47.41,14.99,44.4,10.87z M42.73,9.89
				c-0.34,0.34-0.82,0.53-1.32,0.53s-0.97-0.19-1.31-0.53c-0.35-0.35-0.54-0.82-0.54-1.31c0-0.5,0.19-0.96,0.54-1.31
				c0.69-0.7,1.92-0.7,2.61,0c0.36,0.35,0.55,0.81,0.55,1.31C43.27,9.08,43.08,9.55,42.73,9.89z"/>
		</g>
	</g>
	<g>
		<g>
			<path d="M10.48,39.52c-0.7-0.7-1.74-0.96-2.69-0.66l-0.34,0.1l-0.21-0.28C4.19,34.73,2.57,30,2.57,25c0-2.38,0.38-4.73,1.1-6.97
				c0.07-0.19,0.05-0.41-0.04-0.6c-0.09-0.18-0.26-0.33-0.46-0.39C3.09,17.01,3.01,17,2.93,17c-0.33,0-0.64,0.21-0.75,0.54
				C1.4,19.94,1,22.45,1,25c0,5.4,1.76,10.52,5.09,14.78l0.19,0.25L6.16,40.3c-0.46,1.02-0.25,2.23,0.54,3
				c1.01,1.01,2.77,1.01,3.78,0C11.52,42.26,11.52,40.56,10.48,39.52z M9.36,42.19C9.15,42.4,8.87,42.5,8.59,42.5
				c-0.29,0-0.57-0.1-0.78-0.32c-0.2-0.2-0.33-0.48-0.33-0.78s0.11-0.57,0.33-0.78c0.41-0.41,1.14-0.42,1.55,0
				C9.79,41.06,9.79,41.76,9.36,42.19z"/>
		</g>
	</g>
	<g>
		<g>
			<path d="M9.37,8.59c0,0.2-0.08,0.41-0.23,0.55c-0.29,0.3-0.82,0.3-1.11,0C7.88,9,7.8,8.79,7.8,8.59s0.08-0.41,0.22-0.56
				c0.14-0.13,0.34-0.21,0.56-0.21c0.21,0,0.42,0.08,0.55,0.21C9.29,8.18,9.37,8.38,9.37,8.59z"/>
		</g>
	</g>
	<g>
		<g>
			<path d="M42.2,41.41c0,0.2-0.08,0.41-0.22,0.56c-0.3,0.29-0.83,0.29-1.11,0c-0.15-0.15-0.23-0.36-0.23-0.56s0.08-0.41,0.23-0.55
				v-0.01c0.13-0.13,0.34-0.2,0.55-0.2c0.22,0,0.42,0.07,0.56,0.21C42.12,41,42.2,41.21,42.2,41.41z"/>
		</g>
	</g>
</g>
</svg>
