<?xml version="1.0" encoding="utf-8"?>
<!-- Generator: Adobe Illustrator 24.0.0, SVG Export Plug-In . SVG Version: 6.00 Build 0)  -->
<svg version="1.1" id="Capa_1" xmlns="http://www.w3.org/2000/svg" xmlns:xlink="http://www.w3.org/1999/xlink" x="0px" y="0px"
	 viewBox="0 0 50 50" style="enable-background:new 0 0 50 50;" xml:space="preserve">
<g>
	<path d="M25,7.05c3.05,0,5.53,2.48,5.53,5.53c0,1-0.28,1.98-0.8,2.85c-0.28,0.47-0.29,1.06-0.02,1.53
		c0.27,0.48,0.78,0.77,1.32,0.77h7.94c0.42,0,0.8,0.27,0.93,0.67l7.53,23.27c0.1,0.3,0.05,0.62-0.14,0.87s-0.47,0.4-0.79,0.4H3.5
		c-0.31,0-0.6-0.15-0.79-0.4c-0.19-0.25-0.24-0.57-0.14-0.87l7.53-23.27c0.13-0.4,0.5-0.67,0.93-0.67h7.94
		c0.55,0,1.05-0.3,1.32-0.77c0.27-0.48,0.26-1.06-0.02-1.53c-0.52-0.87-0.8-1.85-0.8-2.85C19.47,9.53,21.95,7.05,25,7.05 M25,5.53
		c-3.89,0-7.05,3.16-7.05,7.05c0,1.33,0.38,2.57,1.02,3.64h-7.94c-1.08,0-2.04,0.7-2.37,1.73L1.12,41.21
		C0.6,42.82,1.8,44.47,3.5,44.47H46.5c1.69,0,2.89-1.65,2.37-3.26l-7.53-23.27c-0.33-1.03-1.29-1.73-2.37-1.73h-7.94
		c0.64-1.06,1.02-2.31,1.02-3.64C32.05,8.69,28.89,5.53,25,5.53L25,5.53z"/>
	<path d="M25,10.37c1.22,0,2.21,0.99,2.21,2.21c0,0.98-0.66,1.85-1.6,2.12h-1.23c-0.93-0.27-1.6-1.14-1.6-2.12
		C22.79,11.36,23.78,10.37,25,10.37 M25,8.85c-2.06,0-3.73,1.67-3.73,3.73c0,1.78,1.26,3.27,2.93,3.64h1.6
		c1.67-0.37,2.93-1.86,2.93-3.64C28.73,10.52,27.06,8.85,25,8.85L25,8.85z"/>
	<g>
		<g>
			<path d="M31.83,34.84c-0.59-0.43-1.34-0.49-1.81-0.14c-0.86,0.6-1.8,0.91-2.87,0.91c-2.73,0-4.71-2.2-4.71-5.2
				c0-2.93,2.04-5.17,4.64-5.17c1.12,0,2.07,0.3,2.9,0.92c0.47,0.36,1.19,0.2,1.65-0.14l0.16-0.12c0.42-0.32,0.65-0.79,0.63-1.31
				c-0.01-0.53-0.27-0.99-0.72-1.29C30.44,22.43,28.87,22,27.05,22c-4.94,0-8.67,3.61-8.67,8.39v0.06c0,4.69,3.71,8.35,8.42,8.35
				c2,0,3.61-0.43,4.96-1.35c0.45-0.32,0.7-0.79,0.72-1.34C32.48,35.61,32.25,35.14,31.83,34.84z"/>
		</g>
	</g>
</g>
</svg>
