<?xml version="1.0" encoding="utf-8"?>
<!-- Generator: Adobe Illustrator 24.0.0, SVG Export Plug-In . SVG Version: 6.00 Build 0)  -->
<svg version="1.1" id="Capa_1" xmlns="http://www.w3.org/2000/svg" xmlns:xlink="http://www.w3.org/1999/xlink" x="0px" y="0px"
	 viewBox="0 0 50 50" style="enable-background:new 0 0 50 50;" xml:space="preserve">
<g>
	<g>
		<path d="M25.01,12.06c-6.72,0-12.19,5.47-12.19,12.19c0,2.75,0.91,5.35,2.61,7.51c0.34,0.44,0.7,0.86,1.09,1.3
			c1.23,1.43,2.47,2.88,2.95,4.63c0.09,0.34,0.14,0.94,0.13,1.78v0.95c0,0.67,0.54,1.22,1.21,1.22h8.33c0.67,0,1.21-0.55,1.21-1.22
			v-0.97c0-0.78,0.04-1.33,0.13-1.65c0.48-1.74,1.86-3.37,3.09-4.81l0.07-0.08c0.33-0.4,0.65-0.77,0.94-1.14
			c1.71-2.17,2.61-4.77,2.61-7.52C37.19,17.53,31.73,12.06,25.01,12.06z M32.68,30.26v0.01c-0.27,0.33-0.57,0.69-0.9,1.07
			l-0.08,0.09c-1.38,1.63-2.94,3.47-3.57,5.72c-0.08,0.3-0.18,0.77-0.2,1.69l-0.01,0.37h-5.89l-0.01-0.37
			c-0.02-0.99-0.12-1.47-0.2-1.79c-0.63-2.29-2.19-4.1-3.44-5.55c-0.39-0.46-0.74-0.85-1.04-1.24c-1.36-1.73-2.09-3.81-2.09-6.01
			c0-5.38,4.38-9.76,9.76-9.76c5.38,0,9.75,4.38,9.75,9.76C34.76,26.45,34.04,28.53,32.68,30.26z"/>
	</g>
	<g>
		<path d="M30.34,44.06c0,0.67-0.54,1.21-1.21,1.21h-8.33c-0.67,0-1.21-0.54-1.21-1.21c0-0.67,0.54-1.22,1.21-1.22h8.33
			C29.81,42.84,30.34,43.39,30.34,44.06z"/>
	</g>
	<g>
		<path d="M28.27,47.68c0,0.67-0.54,1.22-1.21,1.22h-4.17c-0.67,0-1.21-0.55-1.21-1.22c0-0.67,0.54-1.21,1.21-1.21h4.17
			C27.73,46.47,28.27,47.01,28.27,47.68z"/>
	</g>
	<g>
		<path d="M48.16,24.25c0,0.67-0.54,1.22-1.21,1.22h-5.49c-0.67,0-1.21-0.55-1.21-1.22c0-0.67,0.54-1.21,1.21-1.21h5.49
			C47.61,23.04,48.16,23.58,48.16,24.25z"/>
	</g>
	<g>
		<path d="M9.77,24.25c0,0.67-0.55,1.22-1.22,1.22H3.06c-0.67,0-1.22-0.55-1.22-1.22c0-0.67,0.55-1.21,1.22-1.21h5.48
			C9.22,23.04,9.77,23.58,9.77,24.25z"/>
	</g>
	<g>
		<path d="M26.22,2.31V7.8c0,0.67-0.54,1.21-1.21,1.21c-0.67,0-1.22-0.54-1.22-1.21V2.31c0-0.67,0.55-1.21,1.22-1.21
			C25.68,1.1,26.22,1.64,26.22,2.31z"/>
	</g>
	<g>
		<path d="M41.74,39.77c0,0.32-0.13,0.63-0.36,0.86c-0.46,0.45-1.26,0.45-1.72-0.01l-3.88-3.88c-0.47-0.47-0.47-1.24,0.01-1.71
			c0.23-0.23,0.53-0.36,0.85-0.36c0.33,0,0.63,0.13,0.86,0.36l3.88,3.88C41.6,39.14,41.74,39.44,41.74,39.77z"/>
	</g>
	<g>
		<path d="M14.58,12.62c0,0.32-0.13,0.62-0.36,0.85c-0.46,0.46-1.26,0.46-1.72,0L8.64,9.6C8.41,9.37,8.28,9.06,8.28,8.74
			c0-0.33,0.13-0.63,0.36-0.86c0.23-0.23,0.53-0.36,0.85-0.36c0.33,0,0.63,0.13,0.86,0.36l3.88,3.88
			C14.46,11.99,14.58,12.29,14.58,12.62z"/>
	</g>
	<g>
		<path d="M14.58,35.89c0,0.32-0.13,0.63-0.36,0.85l-3.88,3.88c-0.46,0.46-1.25,0.46-1.71,0c-0.23-0.22-0.36-0.53-0.36-0.85
			c0-0.33,0.13-0.63,0.36-0.86l3.88-3.88c0.46-0.46,1.25-0.46,1.71,0C14.46,35.26,14.58,35.56,14.58,35.89z"/>
	</g>
	<g>
		<path d="M41.74,8.74c0,0.32-0.13,0.63-0.36,0.86l-3.88,3.87c-0.46,0.46-1.26,0.46-1.71,0c-0.23-0.23-0.36-0.53-0.36-0.85
			c0-0.33,0.13-0.63,0.36-0.86l3.87-3.88c0.23-0.23,0.54-0.36,0.86-0.36c0.33,0,0.63,0.13,0.86,0.36
			C41.6,8.11,41.74,8.41,41.74,8.74z"/>
	</g>
</g>
</svg>
