<?xml version="1.0" encoding="utf-8"?>
<!-- Generator: Adobe Illustrator 24.0.0, SVG Export Plug-In . SVG Version: 6.00 Build 0)  -->
<svg version="1.1" id="Capa_1" xmlns="http://www.w3.org/2000/svg" xmlns:xlink="http://www.w3.org/1999/xlink" x="0px" y="0px"
	 viewBox="0 0 50 50" style="enable-background:new 0 0 50 50;" xml:space="preserve">
<g>
	<g>
		<path d="M48.62,9.86c-0.01,0-0.01,0-0.01-0.01l-5.78-8.31c-0.12-0.18-0.34-0.29-0.56-0.29H28.55c-0.22,0-0.43,0.11-0.56,0.29
			l-5.79,8.3c-0.17,0.26-0.15,0.59,0.04,0.83L34.9,25.91c0.11,0.14,0.3,0.22,0.52,0.22c0.21,0,0.4-0.08,0.51-0.21l12.65-15.25
			C48.78,10.43,48.79,10.1,48.62,9.86z M34.23,21.5c0,0.1-0.07,0.2-0.17,0.23c-0.03,0.01-0.05,0.02-0.08,0.02
			c-0.08,0-0.15-0.04-0.19-0.09l-8.15-9.83c-0.07-0.07-0.08-0.18-0.04-0.26c0.04-0.09,0.13-0.15,0.23-0.15h8.15
			c0.14,0,0.25,0.11,0.25,0.25V21.5z M45.19,11.83l-8.15,9.82c-0.05,0.06-0.12,0.09-0.19,0.09c-0.03,0-0.06-0.01-0.09-0.02
			c-0.1-0.03-0.16-0.13-0.16-0.23v-9.82c0-0.14,0.11-0.25,0.25-0.25H45c0.09,0,0.18,0.06,0.22,0.15
			C45.27,11.65,45.25,11.76,45.19,11.83z M24.56,9.29l4.48-6.42h12.75l4.47,6.42H24.56z"/>
	</g>
	<g>
		<path d="M47.58,35.33c-0.67-0.67-1.62-1.05-2.61-1.05s-1.94,0.38-2.62,1.05l-4.41,4.41c-0.34,0.36-0.83,0.56-1.34,0.56H25.1
			c-1.29,0-2.34-1.04-2.34-2.33c0-1.29,1.05-2.34,2.34-2.34h3.5c1.87,0,3.44-1.5,3.47-3.33c0.02-0.95-0.32-1.82-0.97-2.48
			c-0.64-0.66-1.51-1.03-2.44-1.03H18.6c-3.58,0-7.1,1.66-9.2,4.33l-1.49,1.89c-0.05,0.06-0.12,0.1-0.2,0.1H1.94
			c-0.37,0-0.68,0.3-0.68,0.67v12.29c0,0.38,0.31,0.68,0.68,0.68h35.78c1.06,0,2.06-0.41,2.82-1.16l7.04-7.04
			c0.69-0.7,1.07-1.63,1.07-2.61S48.27,36.03,47.58,35.33z M46.26,39.22l-7.05,7.05c-0.4,0.39-0.93,0.61-1.49,0.61H3.38
			c-0.14,0-0.25-0.11-0.25-0.25v-9.42c0-0.13,0.11-0.25,0.25-0.25h4.79c0.37,0,0.71-0.16,0.93-0.44l1.75-2.24
			c1.93-2.31,4.75-3.63,7.75-3.63l10.06,0.01c0.42,0,0.82,0.17,1.11,0.47s0.45,0.7,0.43,1.12c-0.01,0.83-0.73,1.52-1.6,1.52h-3.5
			c-2.32,0-4.21,1.88-4.21,4.2c0,2.32,1.89,4.2,4.21,4.2h11.5c0.99,0,1.96-0.4,2.66-1.11l4.42-4.41c0.67-0.68,1.9-0.68,2.58,0
			C46.96,37.36,46.96,38.51,46.26,39.22z"/>
	</g>
</g>
</svg>
