<?xml version="1.0" encoding="utf-8"?>
<!-- Generator: Adobe Illustrator 23.1.0, SVG Export Plug-In . SVG Version: 6.00 Build 0)  -->
<svg version="1.0" id="Capa_1" xmlns="http://www.w3.org/2000/svg" xmlns:xlink="http://www.w3.org/1999/xlink" x="0px" y="0px"
	 viewBox="0 0 357.76 522.87" style="enable-background:new 0 0 357.76 522.87;" xml:space="preserve">
<style type="text/css">
	.st0{fill:#2F2F2F;}
	.st1{fill:#FFFFFF;}
</style>
<g>
	<polygon class="st0" points="357.76,411.58 357.76,98.3 178.88,0 0,98.3 0,411.58 178.88,522.87 	"/>
	<path class="st1" d="M326.13,387.56l-54.76-48.4V179.79l54.76-48.4c4.65-4.11,4.65-10.77,0-14.87l0,0
		c-4.65-4.11-12.18-4.11-16.83,0l-47.59,42.07l-70.93-47.31V43.71c0-5.81-5.33-10.52-11.9-10.52h0c-6.57,0-11.9,4.71-11.9,10.52
		v67.56l-70.93,47.31l-47.59-42.07c-4.65-4.11-12.18-4.11-16.83,0l0,0c-4.65,4.11-4.65,10.77,0,14.87l54.76,48.4v159.37l-54.76,48.4
		c-4.65,4.11-4.65,10.77,0,14.87l0,0c4.65,4.11,12.18,4.11,16.83,0l51.65-45.65l66.87,50.5v62.55c0,5.81,5.33,10.52,11.9,10.52h0
		c6.57,0,11.9-4.71,11.9-10.52v-62.55l66.87-50.5l51.65,45.65c4.65,4.11,12.18,4.11,16.83,0l0,0
		C330.78,398.32,330.78,391.67,326.13,387.56z M247.57,336.73l-68.69,51.87l-68.69-51.87V175.51l68.69-45.82l68.69,45.82V336.73z"/>
</g>
</svg>
