<?xml version="1.0" encoding="utf-8"?>
<!-- Generator: Adobe Illustrator 23.1.0, SVG Export Plug-In . SVG Version: 6.00 Build 0)  -->
<svg version="1.0" id="Capa_1" xmlns="http://www.w3.org/2000/svg" xmlns:xlink="http://www.w3.org/1999/xlink" x="0px" y="0px"
	 viewBox="0 0 385.28 495.35" style="enable-background:new 0 0 385.28 495.35;" xml:space="preserve">
<style type="text/css">
	.st0{fill:#2F2F2F;}
	.st1{fill:#FFFFFF;}
</style>
<g>
	<path class="st0" d="M358.99,495.35H26.28C11.77,495.35,0,483.59,0,469.07V26.28C0,11.77,11.77,0,26.28,0h332.71
		c14.52,0,26.28,11.77,26.28,26.28v442.79C385.28,483.59,373.51,495.35,358.99,495.35z"/>
	<rect x="57.22" y="54.67" class="st1" width="38.81" height="13.79"/>
	<rect x="122.92" y="54.67" class="st1" width="69.71" height="13.79"/>
	<rect x="261.82" y="68.46" class="st1" width="81.87" height="13.79"/>
	
		<rect x="288.7" y="41.21" transform="matrix(-1.836970e-16 1 -1 -1.836970e-16 384.8981 -288.6965)" class="st1" width="96.2" height="13.79"/>
	
		<rect x="220.61" y="41.21" transform="matrix(-1.836970e-16 1 -1 -1.836970e-16 316.813 -220.6114)" class="st1" width="96.2" height="13.79"/>
	<rect x="57.22" y="96.2" class="st1" width="135.41" height="13.79"/>
	<rect x="57.22" y="233.05" class="st1" width="107.57" height="13.79"/>
	<rect x="57.22" y="303.86" class="st1" width="93.62" height="13.79"/>
	<rect x="57.22" y="344.37" class="st1" width="93.62" height="13.79"/>
	<rect x="57.22" y="164.63" class="st1" width="162.04" height="13.79"/>
	<rect x="57.22" y="205.82" class="st1" width="272.68" height="13.79"/>
	<rect x="239.69" y="164.63" class="st1" width="36.09" height="13.79"/>
	<rect x="293.82" y="164.63" class="st1" width="36.09" height="13.79"/>
	<g>
		<path class="st1" d="M355.33,331.6c3.07-2.31,4.66-6.05,4.15-9.9c-0.5-3.84-3-7.05-6.57-8.48c2.37-3.03,2.93-7.06,1.45-10.64
			c-1.48-3.58-4.73-6.03-8.55-6.5c1.51-3.53,1.01-7.57-1.35-10.65c-2.36-3.07-6.13-4.6-9.94-4.06c0.54-3.81-0.99-7.58-4.06-9.94
			s-7.11-2.86-10.65-1.35c-0.46-3.82-2.92-7.06-6.5-8.55c-3.58-1.48-7.61-0.92-10.63,1.45c-1.44-3.56-4.65-6.07-8.49-6.57
			c-3.84-0.51-7.59,1.08-9.9,4.15c-2.31-3.07-6.05-4.66-9.9-4.15c-3.84,0.5-7.05,3.01-8.49,6.57c-3.02-2.37-7.05-2.93-10.64-1.45
			c-3.58,1.49-6.03,4.73-6.49,8.55c-3.54-1.51-7.58-1.01-10.65,1.35c-3.08,2.36-4.61,6.13-4.06,9.94c-3.82-0.54-7.58,0.99-9.94,4.06
			c-2.36,3.08-2.86,7.12-1.35,10.65c-3.82,0.47-7.07,2.92-8.55,6.5c-1.49,3.58-0.92,7.61,1.45,10.64c-3.57,1.43-6.07,4.64-6.58,8.48
			c-0.5,3.85,1.08,7.59,4.16,9.9c-3.08,2.31-4.66,6.06-4.16,9.9c0.51,3.85,3.01,7.06,6.58,8.49c-2.37,3.03-2.94,7.06-1.45,10.64
			c1.48,3.58,4.73,6.03,8.55,6.49c-1.51,3.54-1.01,7.58,1.35,10.65c2.36,3.08,6.13,4.61,9.94,4.07c-0.55,3.8,0.98,7.58,4.06,9.93
			c0.8,0.62,1.67,1.11,2.59,1.46v69.95c0,3.1,2.52,5.62,5.62,5.62c3.1,0,5.62-2.52,5.62-5.62v-10.21h64.68v10.21
			c0,3.1,2.51,5.62,5.62,5.62c3.1,0,5.61-2.52,5.61-5.62v-69.94c0.92-0.36,1.79-0.85,2.6-1.47c3.07-2.35,4.6-6.13,4.06-9.93
			c3.81,0.54,7.58-0.99,9.94-4.07c2.36-3.07,2.86-7.11,1.35-10.65c3.82-0.46,7.07-2.91,8.55-6.49c1.48-3.58,0.92-7.61-1.45-10.64
			c3.57-1.43,6.07-4.64,6.57-8.49C359.99,337.66,358.4,333.91,355.33,331.6z M251.95,441.73v-42.22c0.94,0.91,2.06,1.64,3.31,2.16
			c3.59,1.49,7.62,0.93,10.64-1.45c1.44,3.57,4.65,6.07,8.49,6.58c3.84,0.51,7.59-1.08,9.9-4.16c2.02,2.7,5.15,4.25,8.49,4.25
			c0.46,0,0.94-0.03,1.41-0.09c3.84-0.51,7.05-3.01,8.49-6.58c3.02,2.38,7.05,2.94,10.63,1.45c1.26-0.52,2.38-1.26,3.32-2.17v42.23
			H251.95z M348.2,340.02c-3.03,1.27-5.31,3.87-6.16,7.06s-0.18,6.58,1.8,9.19c-3.25,0.45-6.12,2.37-7.77,5.23
			c-1.66,2.86-1.88,6.31-0.64,9.35c-3.25-0.42-6.53,0.69-8.86,3.03c-2.34,2.34-3.45,5.61-3.04,8.86c-3.04-1.24-6.48-1.01-9.35,0.64
			c-2.86,1.66-4.78,4.53-5.22,7.78c-2.62-1.99-6-2.66-9.2-1.8c-3.19,0.85-5.79,3.13-7.06,6.15c-2.01-2.59-5.11-4.12-8.41-4.12
			c-3.31,0-6.41,1.53-8.42,4.12c-1.27-3.02-3.86-5.3-7.05-6.15c-3.2-0.86-6.59-0.19-9.2,1.8c-0.44-3.25-2.36-6.12-5.23-7.78
			c-2.86-1.65-6.3-1.87-9.34-0.63c0.41-3.26-0.7-6.53-3.04-8.87c-2.34-2.34-5.61-3.45-8.86-3.03c1.24-3.04,1.01-6.49-0.64-9.35
			c-1.65-2.86-4.53-4.78-7.78-5.23c1.99-2.61,2.66-6,1.81-9.19c-0.86-3.19-3.14-5.79-6.16-7.06c2.59-2.01,4.12-5.11,4.12-8.41
			c0-3.31-1.53-6.41-4.12-8.42c3.02-1.27,5.3-3.87,6.16-7.06c0.85-3.19,0.18-6.58-1.81-9.19c3.25-0.45,6.13-2.37,7.78-5.23
			c1.65-2.86,1.88-6.31,0.64-9.35c3.25,0.41,6.52-0.7,8.86-3.03c2.34-2.34,3.45-5.61,3.04-8.87c3.04,1.24,6.48,1.02,9.34-0.63
			c2.87-1.66,4.79-4.53,5.23-7.78c2.61,1.98,6,2.66,9.19,1.8c3.2-0.85,5.79-3.13,7.06-6.16c2.01,2.6,5.11,4.13,8.42,4.13
			c3.3,0,6.4-1.53,8.41-4.13c1.27,3.03,3.87,5.31,7.06,6.16c3.2,0.86,6.58,0.18,9.2-1.8c0.44,3.25,2.36,6.12,5.22,7.78
			c2.86,1.65,6.31,1.87,9.35,0.63c-0.41,3.26,0.7,6.53,3.04,8.87c2.33,2.33,5.6,3.45,8.86,3.03c-1.24,3.04-1.02,6.49,0.64,9.35
			c1.65,2.86,4.52,4.78,7.77,5.23c-1.98,2.61-2.66,6-1.8,9.19s3.13,5.79,6.16,7.06c-2.59,2.01-4.12,5.11-4.12,8.42
			C344.08,334.91,345.61,338.01,348.2,340.02z"/>
	</g>
	<g>
		<path class="st1" d="M284.29,367.57c-19.83,0-35.97-16.14-35.97-35.97s16.13-35.97,35.97-35.97s35.97,16.13,35.97,35.97
			S304.12,367.57,284.29,367.57z M284.29,306.64c-13.77,0-24.97,11.2-24.97,24.97s11.2,24.97,24.97,24.97s24.97-11.2,24.97-24.97
			S298.05,306.64,284.29,306.64z"/>
	</g>
</g>
</svg>
