<?xml version="1.0" encoding="utf-8"?>
<!-- Generator: Adobe Illustrator 23.1.0, SVG Export Plug-In . SVG Version: 6.00 Build 0)  -->
<svg version="1.0" id="Capa_1" xmlns="http://www.w3.org/2000/svg" xmlns:xlink="http://www.w3.org/1999/xlink" x="0px" y="0px"
	 viewBox="0 0 426.55 507.9" style="enable-background:new 0 0 426.55 507.9;" xml:space="preserve">
<style type="text/css">
	.st0{fill:#2F2F2F;}
	.st1{fill:#FFFFFF;}
</style>
<g>
	<polygon class="st0" points="426.55,507.9 0,507.9 46.88,164.17 363.22,164.17 	"/>
	<g>
		<path class="st1" d="M98.47,335.09c0,11.41,4.79,17.11,14.37,17.11c1.72,0,3.35-0.16,4.88-0.48c1.53-0.32,3.4-0.86,5.61-1.61
			c1.78,3.87,2.96,7.86,3.55,11.95c-1.56,0.59-3.01,1.08-4.36,1.45c-1.35,0.38-2.64,0.66-3.87,0.85c-1.24,0.19-2.46,0.32-3.67,0.4
			s-2.46,0.12-3.75,0.12c-4.57,0-8.6-0.74-12.07-2.22c-3.47-1.48-6.38-3.54-8.72-6.17c-2.34-2.64-4.1-5.78-5.29-9.44
			c-1.18-3.66-1.78-7.64-1.78-11.94c0-4.3,0.62-8.3,1.86-11.99c1.24-3.68,3.03-6.87,5.37-9.56c2.34-2.69,5.23-4.79,8.68-6.29
			c3.44-1.51,7.34-2.26,11.7-2.26c2.58,0,5.03,0.19,7.34,0.57c2.31,0.38,4.9,1.13,7.75,2.26c-0.11,2.21-0.51,4.34-1.21,6.42
			c-0.7,2.07-1.43,3.89-2.18,5.45c-1.08-0.38-2.06-0.7-2.95-0.97c-0.89-0.27-1.74-0.48-2.54-0.65c-0.81-0.16-1.61-0.28-2.42-0.36
			c-0.81-0.08-1.67-0.12-2.58-0.12c-4.36,0-7.74,1.47-10.13,4.4C99.67,324.9,98.47,329.27,98.47,335.09z"/>
		<path class="st1" d="M140.36,363.82c-1.24,0.21-2.37,0.38-3.39,0.48c-1.02,0.11-2.02,0.16-2.99,0.16c-0.97,0-2.09-0.07-3.35-0.2
			c-1.26-0.13-2.68-0.33-4.24-0.61l18.08-57.62c1.4-0.16,2.7-0.29,3.91-0.4c1.21-0.11,2.43-0.16,3.67-0.16
			c1.02,0,2.14,0.05,3.35,0.16c1.21,0.11,2.6,0.24,4.16,0.4l17.84,57.71c-3.07,0.48-5.76,0.73-8.07,0.73
			c-1.08,0-2.15-0.05-3.23-0.16c-1.08-0.11-2.23-0.27-3.47-0.48l-3.07-11.22c-1.51,0.43-2.95,0.75-4.32,0.97
			c-1.37,0.22-2.73,0.32-4.08,0.32c-1.24,0-2.5-0.09-3.79-0.28c-1.29-0.19-2.64-0.47-4.04-0.85L140.36,363.82z M151.66,321.2
			l-5.41,20.74c0.91,0.27,1.78,0.48,2.58,0.65c0.81,0.16,1.64,0.24,2.5,0.24c0.91,0,1.82-0.07,2.7-0.2
			c0.89-0.13,1.82-0.34,2.78-0.61L151.66,321.2z"/>
		<path class="st1" d="M179.42,306.11c2.64-0.27,5.07-0.52,7.3-0.77c2.23-0.24,4.59-0.36,7.06-0.36c2.96,0,5.92,0.28,8.88,0.85
			c2.96,0.56,5.59,1.55,7.91,2.95c2.31,1.4,4.2,3.31,5.65,5.73s2.18,5.49,2.18,9.2c0,1.99-0.23,3.78-0.69,5.37
			c-0.46,1.59-1.05,3-1.78,4.24c-0.72,1.24-1.53,2.31-2.42,3.23c-0.89,0.92-1.76,1.7-2.62,2.34l12.59,24.86
			c-1.29,0.22-2.7,0.38-4.24,0.48c-1.53,0.11-2.92,0.16-4.16,0.16c-1.08,0-2.33-0.05-3.75-0.16c-1.43-0.11-2.68-0.27-3.75-0.48
			l-11.46-26.39l0.73-0.4c0.65-0.32,1.36-0.86,2.14-1.61c0.78-0.75,1.51-1.65,2.18-2.7c0.67-1.05,1.24-2.22,1.7-3.51
			c0.46-1.29,0.69-2.64,0.69-4.04c0-2.69-0.75-4.65-2.26-5.89c-1.51-1.24-3.36-1.86-5.57-1.86c-0.54,0-1,0.03-1.37,0.08
			c-0.38,0.05-0.62,0.11-0.73,0.16v46.16c-2.85,0.48-5.19,0.73-7.02,0.73c-1.99,0-4.39-0.24-7.18-0.73V306.11z"/>
		<path class="st1" d="M235.43,363.82c-1.24,0.21-2.37,0.38-3.39,0.48c-1.02,0.11-2.02,0.16-2.99,0.16c-0.97,0-2.09-0.07-3.35-0.2
			c-1.26-0.13-2.68-0.33-4.24-0.61l18.08-57.62c1.4-0.16,2.7-0.29,3.91-0.4c1.21-0.11,2.43-0.16,3.67-0.16
			c1.02,0,2.14,0.05,3.35,0.16c1.21,0.11,2.6,0.24,4.16,0.4l17.84,57.71c-3.07,0.48-5.76,0.73-8.07,0.73
			c-1.08,0-2.15-0.05-3.23-0.16c-1.08-0.11-2.23-0.27-3.47-0.48l-3.07-11.22c-1.51,0.43-2.95,0.75-4.32,0.97
			c-1.37,0.22-2.73,0.32-4.08,0.32c-1.24,0-2.5-0.09-3.79-0.28c-1.29-0.19-2.64-0.47-4.04-0.85L235.43,363.82z M246.73,321.2
			l-5.41,20.74c0.92,0.27,1.78,0.48,2.58,0.65c0.81,0.16,1.64,0.24,2.5,0.24c0.91,0,1.82-0.07,2.7-0.2
			c0.89-0.13,1.82-0.34,2.79-0.61L246.73,321.2z"/>
		<path class="st1" d="M277.8,318.54h-13.48c-0.48-2.31-0.73-4.44-0.73-6.38c0-1.78,0.24-3.85,0.73-6.21h41.24
			c0.21,1.18,0.38,2.29,0.48,3.31c0.11,1.02,0.16,1.99,0.16,2.91c0,1.78-0.22,3.9-0.65,6.38h-13.48v45.2
			c-2.85,0.48-5.22,0.73-7.1,0.73c-1.99,0-4.39-0.24-7.18-0.73V318.54z"/>
		<path class="st1" d="M331.63,328.55c2.26,0.92,4.29,1.84,6.09,2.78c1.8,0.94,3.35,2.07,4.64,3.39c1.29,1.32,2.29,2.91,2.99,4.76
			c0.7,1.86,1.05,4.1,1.05,6.74c0,2.85-0.5,5.42-1.49,7.71c-1,2.29-2.46,4.25-4.4,5.89c-1.94,1.64-4.32,2.91-7.14,3.79
			c-2.82,0.89-6.07,1.33-9.72,1.33c-3.34,0-6.28-0.27-8.84-0.81c-2.56-0.54-5.31-1.37-8.27-2.5c0.21-1.88,0.59-3.89,1.13-6.01
			c0.54-2.12,1.18-4.29,1.94-6.5c4.95,2.15,9.25,3.23,12.91,3.23c2.74,0,4.88-0.42,6.42-1.25c1.53-0.83,2.3-2.27,2.3-4.32
			c0-0.86-0.16-1.6-0.48-2.22c-0.32-0.62-0.75-1.14-1.29-1.57c-0.54-0.43-1.14-0.79-1.82-1.09c-0.67-0.29-1.36-0.58-2.06-0.85
			l-4.52-1.69c-1.94-0.7-3.7-1.53-5.29-2.5s-2.95-2.11-4.08-3.43s-2-2.84-2.62-4.56c-0.62-1.72-0.93-3.74-0.93-6.05
			c0-2.85,0.48-5.38,1.45-7.59s2.33-4.08,4.08-5.61c1.75-1.53,3.86-2.69,6.33-3.47c2.47-0.78,5.25-1.17,8.31-1.17
			c2.74,0,5.39,0.27,7.95,0.81c2.55,0.54,5.29,1.32,8.19,2.34c-0.22,1.72-0.61,3.62-1.17,5.69c-0.56,2.07-1.28,4.02-2.14,5.85
			c-1.4-0.59-3.04-1.21-4.92-1.86c-1.88-0.65-4.22-0.97-7.02-0.97c-0.86,0-1.68,0.08-2.46,0.24c-0.78,0.16-1.48,0.42-2.1,0.77
			c-0.62,0.35-1.12,0.83-1.49,1.45c-0.38,0.62-0.56,1.39-0.56,2.3c0,1.56,0.51,2.72,1.53,3.47c1.02,0.75,2.23,1.4,3.63,1.94
			L331.63,328.55z"/>
	</g>
	<path class="st0" d="M213.28,0c-39.22,0-71.01,30.63-71.01,68.43c0,37.79,31.79,68.42,71.01,68.42c39.22,0,71.01-30.63,71.01-68.42
		C284.29,30.63,252.5,0,213.28,0z M213.28,111.85c-24.89,0-45.07-19.44-45.07-43.42c0-23.99,20.18-43.43,45.07-43.43
		c24.89,0,45.06,19.44,45.06,43.43C258.34,92.41,238.17,111.85,213.28,111.85z"/>
	<rect x="190.87" y="126.89" class="st0" width="44.81" height="44.81"/>
</g>
</svg>
