<?xml version="1.0" encoding="utf-8"?>
<!-- Generator: Adobe Illustrator 23.1.0, SVG Export Plug-In . SVG Version: 6.00 Build 0)  -->
<svg version="1.0" id="Capa_1" xmlns="http://www.w3.org/2000/svg" xmlns:xlink="http://www.w3.org/1999/xlink" x="0px" y="0px"
	 viewBox="0 0 574.99 448.88" style="enable-background:new 0 0 574.99 448.88;" xml:space="preserve">
<style type="text/css">
	.st0{fill:#2F2F2F;}
</style>
<g>
	<polygon class="st0" points="233.96,62.25 139.49,157.63 331.32,157.63 	"/>
	<polygon class="st0" points="64.68,83.27 85.9,157.62 0,157.62 	"/>
	<polygon class="st0" points="218.55,52.26 119.64,147.63 92.44,52.26 	"/>
	<path class="st0" d="M385.57,157.62h-24.04L252.25,52.26h69.55c-0.63,4.45-0.95,9-0.95,13.62
		C320.85,108.2,347.85,144.21,385.57,157.62z"/>
	<polygon class="st0" points="233.96,448.88 139.49,187.24 331.32,187.24 	"/>
	<polygon class="st0" points="201.91,427.12 0,187.24 109.28,187.24 	"/>
	<polygon class="st0" points="268.89,427.12 470.81,187.24 361.53,187.24 	"/>
	<path class="st0" d="M567.49,85.28h-52.77c-8.25,0-14.97-6.71-14.97-14.97s6.71-14.97,14.97-14.97h52.77c4.14,0,7.5-3.36,7.5-7.5
		s-3.36-7.5-7.5-7.5h-52.77c-12.99,0-24.29,8.23-28.38,20.34h-19.44C466,44.97,461,30.33,452.66,19.14C443.46,6.8,431.23,0,418.21,0
		c-26.94,0-48.86,29.55-48.86,65.88s21.92,65.88,48.86,65.88c24.03,0,44.34-23.46,48.2-55.08h19.03
		c2.94,13.65,15.02,23.59,29.28,23.59h52.77c4.14,0,7.5-3.36,7.5-7.5S571.62,85.28,567.49,85.28z M418.21,116.77
		c-18.67,0-33.86-22.83-33.86-50.88S399.54,15,418.21,15s33.86,22.83,33.86,50.88S436.88,116.77,418.21,116.77z"/>
</g>
</svg>
