<?xml version="1.0" encoding="utf-8"?>
<!-- Generator: Adobe Illustrator 23.1.0, SVG Export Plug-In . SVG Version: 6.00 Build 0)  -->
<svg version="1.0" id="Capa_1" xmlns="http://www.w3.org/2000/svg" xmlns:xlink="http://www.w3.org/1999/xlink" x="0px" y="0px"
	 viewBox="0 0 408.51 487.58" style="enable-background:new 0 0 408.51 487.58;" xml:space="preserve">
<style type="text/css">
	.st0{fill:#2F2F2F;}
	.st1{fill:#FFFFFF;}
</style>
<g>
	<path class="st0" d="M368.94,21.93v394.46H154.46c-24.96,0-45.19,20.23-45.19,45.19v25.99h-22.5c-12.11,0-21.93-9.82-21.93-21.93V0
		h282.16C359.12,0,368.94,9.81,368.94,21.93z"/>
	<path class="st0" d="M37.86,78.61h8.1V0l-8.1,0C16.95,0,0,16.95,0,37.86l0,2.89C0,61.66,16.95,78.61,37.86,78.61z"/>
	<path class="st0" d="M129.96,487.58h252.58c14.35,0,25.98-11.63,25.98-25.98v-1.1c0-14.35-11.63-25.98-25.98-25.98H158.05
		c-15.51,0-28.09,12.58-28.09,28.09V487.58z"/>
	<rect x="78.64" y="223.89" class="st1" width="79.66" height="14.3"/>
	<rect x="183.83" y="223.89" class="st1" width="158.81" height="14.3"/>
	<rect x="78.64" y="328.4" class="st1" width="39.83" height="14.3"/>
	<rect x="144.51" y="328.4" class="st1" width="198.13" height="14.3"/>
	<rect x="78.64" y="301.5" class="st1" width="79.66" height="14.3"/>
	<rect x="183.83" y="301.5" class="st1" width="158.81" height="14.3"/>
	<rect x="78.64" y="369.1" class="st1" width="132.94" height="14.3"/>
	<rect x="237.11" y="369.1" class="st1" width="105.53" height="14.3"/>
	<rect x="78.64" y="262.7" class="st1" width="184.6" height="14.3"/>
	<rect x="158.3" y="185.08" class="st1" width="104.94" height="14.3"/>
	<rect x="290.04" y="262.7" class="st1" width="52.6" height="14.3"/>
	<path class="st1" d="M150.86,62.47c0-5.88-0.02-11.77,0.01-17.65c0.02-5.17,1.28-6.62,6.35-6.88c8.45-0.44,16.81-1.22,24.91-3.93
		c8.98-3.01,16.73-7.95,23.74-14.2c4.06-3.62,5.81-3.66,9.86,0.03c9.83,9,21.27,14.72,34.42,16.79c5.04,0.8,10.18,0.91,15.27,1.36
		c3.61,0.32,5.28,1.95,5.26,5.59c-0.11,13.98,0.22,27.98-0.63,41.92c-1.02,16.74-5.58,32.54-15.9,46.24
		c-8.43,11.2-19.4,19.15-32.14,24.57c-13.3,5.65-9.16,5.71-22.47-0.02c-19.53-8.41-34.1-22.05-41.88-42.2
		c-4.15-10.75-6.08-22-6.64-33.47c-0.29-6.04-0.05-12.1-0.05-18.15C150.94,62.47,150.9,62.47,150.86,62.47z M161.02,47.8
		c-0.09,0.74-0.2,1.15-0.19,1.57c0.27,13.2,0.08,26.44,0.97,39.6c0.75,10.95,4.01,21.44,9.69,30.98
		c8.84,14.85,22.28,23.86,38.16,29.67c0.65,0.24,1.54,0.25,2.19,0.02c11.06-3.95,21.03-9.69,29.34-18.11
		c11.83-11.99,17.26-26.95,18.62-43.26c1.06-12.71,0.7-25.54,0.95-38.32c0.01-0.66-0.14-1.32-0.23-2.15
		c-18.72-0.75-35.53-6.39-49.75-18.98C196.5,41.45,179.75,47.02,161.02,47.8z"/>
	<path class="st1" d="M203.82,95.67c7.82-7.83,15.34-15.38,22.87-22.91c0.72-0.72,1.46-1.45,2.3-2.02c2-1.36,4.42-1.07,6.06,0.61
		c1.75,1.8,2.06,4.32,0.57,6.27c-0.97,1.28-2.17,2.4-3.31,3.54c-8,8.03-16.01,16.06-24.02,24.08c-3.27,3.27-5.62,3.28-8.92,0.02
		c-4.24-4.2-8.53-8.35-12.63-12.68c-3.15-3.32-1.82-8.06,2.43-8.51c1.59-0.17,3.68,0.76,4.93,1.88
		C197.47,88.95,200.51,92.31,203.82,95.67z"/>
</g>
</svg>
