<?xml version="1.0" encoding="utf-8"?>
<!-- Generator: Adobe Illustrator 23.0.6, SVG Export Plug-In . SVG Version: 6.00 Build 0)  -->
<svg version="1.1" id="Capa_1" xmlns="http://www.w3.org/2000/svg" xmlns:xlink="http://www.w3.org/1999/xlink" x="0px" y="0px"
	 viewBox="0 0 378 500" style="enable-background:new 0 0 378 500;" xml:space="preserve">
<style type="text/css">
	.st0{fill:none;stroke:#1A1A1A;stroke-width:0.75;stroke-miterlimit:10;}
</style>
<path class="st0" d="M170,491.8c5.5,4.8,12.3,7.2,19.1,7.2c6.8,0,13.7-2.4,19.1-7.2c6.9-6.1,169.7-151.2,169.7-301.6
	C378,86,293.3,1.3,189.2,1.3S0.3,86,0.3,190.2C0.3,340.6,163.1,485.7,170,491.8L170,491.8z M189.2,140.8c27,0,49,22.1,49,49.4
	c0,27.3-21.9,49.4-49,49.4c-27,0-49-22.1-49-49.4C140.2,162.9,162.1,140.8,189.2,140.8L189.2,140.8z M189.2,140.8"/>
</svg>
