<?xml version="1.0" encoding="utf-8"?>
<!-- Generator: Adobe Illustrator 23.0.6, SVG Export Plug-In . SVG Version: 6.00 Build 0)  -->
<svg version="1.1" id="Capa_1" xmlns="http://www.w3.org/2000/svg" xmlns:xlink="http://www.w3.org/1999/xlink" x="0px" y="0px"
	 viewBox="0 0 500 500" style="enable-background:new 0 0 500 500;" xml:space="preserve">
<style type="text/css">
	.st0{fill:#333333;}
</style>
<g>
	<path class="st0" d="M250,500C112.1,500,0,387.9,0,250C0,112.2,112.1,0,250,0s250,112.1,250,250C500,387.9,387.9,500,250,500z
		 M250,11.4C118.4,11.4,11.4,118.4,11.4,250S118.4,488.6,250,488.6S488.6,381.6,488.6,250S381.6,11.4,250,11.4z"/>
</g>
<path class="st0" d="M298.5,153l-25.2,0c-28.3,0-46.5,18.7-46.5,47.7v22h-25.3c-2.2,0-4,1.8-4,4v31.9c0,2.2,1.8,4,4,4h25.3v80.5
	c0,2.2,1.8,4,4,4h33c2.2,0,4-1.8,4-4v-80.5h29.6c2.2,0,4-1.8,4-4l0-31.9c0-1-0.4-2-1.2-2.8c-0.7-0.7-1.7-1.2-2.8-1.2h-29.6v-18.7
	c0-9,2.1-13.5,13.8-13.5l17,0c2.2,0,4-1.8,4-4V157C302.4,154.8,300.7,153.1,298.5,153L298.5,153z M298.5,153"/>
</svg>
