<?xml version="1.0" encoding="utf-8"?>
<!-- Generator: Adobe Illustrator 23.1.0, SVG Export Plug-In . SVG Version: 6.00 Build 0)  -->
<svg version="1.0" id="Capa_1" xmlns="http://www.w3.org/2000/svg" xmlns:xlink="http://www.w3.org/1999/xlink" x="0px" y="0px"
	 viewBox="0 0 470.85 632.27" style="enable-background:new 0 0 470.85 632.27;" xml:space="preserve">
<style type="text/css">
	.st0{fill:#EBE9E9;}
</style>
<path class="st0" d="M280.67,165.75l79.32-108.01L314.97,0H156.52l-44.98,57.74l79.25,107.9C82.1,186.48,0,282.08,0,396.82
	c0,130.04,105.4,235.44,235.44,235.44c130.01,0,235.41-105.4,235.41-235.44C470.85,282.29,389.04,186.83,280.67,165.75z
	 M235.44,559.72c-89.96,0-162.9-72.94-162.9-162.9c0-89.93,72.94-162.86,162.9-162.86c89.93,0,162.86,72.94,162.86,162.86
	C398.31,486.79,325.37,559.72,235.44,559.72z"/>
</svg>
