<?xml version="1.0" encoding="utf-8"?>
<!-- Generator: Adobe Illustrator 23.0.6, SVG Export Plug-In . SVG Version: 6.00 Build 0)  -->
<svg version="1.1" id="Capa_1" xmlns="http://www.w3.org/2000/svg" xmlns:xlink="http://www.w3.org/1999/xlink" x="0px" y="0px"
	 viewBox="0 0 500 500" style="enable-background:new 0 0 500 500;" xml:space="preserve">
<style type="text/css">
	.st0{fill:#333333;}
</style>
<g>
	<g>
		<path class="st0" d="M312.1,162.1H187.8c-14.2,0-25.8,11.6-25.8,25.8v124.3c0,14.2,11.6,25.8,25.8,25.8h124.3
			c14.2,0,25.8-11.6,25.8-25.8V187.9C337.9,173.7,326.3,162.1,312.1,162.1L312.1,162.1z M250.3,296c-25.6,0-46.4-20.8-46.4-46.4
			s20.8-46.4,46.4-46.4c25.6,0,46.4,20.8,46.4,46.4S275.9,296,250.3,296L250.3,296z M301.8,213.6c-8.5,0-15.5-6.9-15.5-15.5
			c0-8.5,6.9-15.5,15.5-15.5c8.5,0,15.5,6.9,15.5,15.5C317.3,206.7,310.4,213.6,301.8,213.6L301.8,213.6z M301.8,213.6"/>
		<path class="st0" d="M301.8,193c-2.8,0-5.2,2.3-5.2,5.2c0,2.8,2.3,5.2,5.2,5.2c2.8,0,5.2-2.3,5.2-5.2
			C307,195.3,304.7,193,301.8,193L301.8,193z M301.8,193"/>
		<path class="st0" d="M250.3,213.6c-19.9,0-36.1,16.2-36.1,36.1c0,19.9,16.2,36.1,36.1,36.1c19.9,0,36.1-16.2,36.1-36.1
			C286.4,229.8,270.2,213.6,250.3,213.6L250.3,213.6z M250.3,213.6"/>
	</g>
	<g>
		<path class="st0" d="M250,500C112.1,500,0,387.9,0,250C0,112.2,112.1,0,250,0s250,112.1,250,250C500,387.9,387.9,500,250,500z
			 M250,11.4C118.4,11.4,11.4,118.4,11.4,250S118.4,488.6,250,488.6S488.6,381.6,488.6,250S381.6,11.4,250,11.4z"/>
	</g>
</g>
</svg>
