<?xml version="1.0" encoding="utf-8"?>
<!-- Generator: Adobe Illustrator 23.0.0, SVG Export Plug-In . SVG Version: 6.00 Build 0)  -->
<svg version="1.1" id="Capa_1" xmlns="http://www.w3.org/2000/svg" xmlns:xlink="http://www.w3.org/1999/xlink" x="0px" y="0px"
	 viewBox="0 0 365.4 276.6" style="enable-background:new 0 0 365.4 276.6;" xml:space="preserve">
<style type="text/css">
	.st0{fill:#040006;}
</style>
<g>
	<g>
		<g>
			<path class="st0" d="M1.7,104.7v-1.3c1.2-0.7,2-1.2,2.5-1.5c0.2-2.9,0.4-8.5,0.4-16.6c0-3.5,0-6.4-0.1-8.8
				c-0.1-2.4-0.2-3.7-0.3-4c-0.1-0.2-0.2-0.3-0.3-0.4C3.4,72,2.2,71.8,0,71.6v-2.1c2.5,0.1,5.4,0.1,8.7,0.1l12.4-0.1
				c4.5,0,7.9,0.6,10.3,1.7c2.3,1.1,4.2,2.9,5.6,5.2c1.4,2.3,2.1,5.2,2.1,8.5c0,4.3-1.1,8-3.2,11.1c-2.1,3.1-4.8,5.3-7.8,6.7
				s-6.4,2-9.9,2l-9.5-0.2C7,104.5,4.7,104.6,1.7,104.7z M11.8,101.6c1.4,0.3,2.8,0.4,4.3,0.4c3.7,0,6.6-0.5,8.5-1.6
				c2-1.1,3.6-2.8,4.8-5.3c1.2-2.4,1.8-5.4,1.8-9c0-4.7-1.2-8.2-3.6-10.7c-2.1-2.2-5.6-3.3-10.4-3.3c-1,0-2.8,0.1-5.4,0.3l-0.2,15.7
				C11.6,94.7,11.7,99.2,11.8,101.6z"/>
			<path class="st0" d="M42.4,104.7v-1.6c1.8-0.1,2.8-0.2,3-0.4c0.2-0.2,0.4-0.7,0.4-1.5c0.1-1.7,0.2-4.9,0.2-9.5
				c0-1.8,0-4.4-0.1-7.7c0-2.3-0.1-3.6-0.2-3.8c-0.1-0.2-0.2-0.4-0.4-0.5c-0.3-0.1-1.3-0.3-2.9-0.4v-1.6c2.7,0.1,4.7,0.1,6.1,0.1
				c2.4,0,4.6,0,6.6-0.1v1.6c-1.8,0.1-2.8,0.2-3,0.4c-0.2,0.2-0.4,0.6-0.4,1.2c-0.1,1.2-0.2,3.7-0.2,7.5c0,5,0,8.5,0.1,10.5
				c0,2,0.2,3.2,0.3,3.5c0.1,0.2,0.2,0.3,0.5,0.4c0.3,0.1,1.1,0.2,2.7,0.3v1.6l-2.3-0.1c-1.4-0.1-2.7-0.1-3.9-0.1L42.4,104.7z"/>
			<path class="st0" d="M57.6,102.9c1.2-0.1,2-0.2,2.2-0.4c0.2-0.1,0.5-0.6,0.9-1.5c0.8-1.7,1.8-4,3-7l6.8-16.8h2.8l8.7,20.8
				c1.1,2.6,1.8,4.1,2.1,4.3c0.3,0.3,1.1,0.4,2.4,0.5v1.8c-2.1-0.1-4.1-0.1-6-0.1c-2.2,0-4.4,0-6.4,0.1v-1.8
				c1.5-0.1,2.4-0.1,2.7-0.3c0.2-0.1,0.4-0.3,0.4-0.6c0-0.2-0.3-1.1-0.8-2.5l-1.3-3.2c-1.6,0-3.4-0.1-5.4-0.1c-1.7,0-3.3,0-4.7,0.1
				l-0.9,2.2c-0.2,0.6-0.5,1.5-0.8,2.6c-0.1,0.3-0.1,0.5-0.1,0.7c0,0.3,0.1,0.5,0.4,0.6c0.3,0.1,1.2,0.2,2.7,0.4v1.8
				c-1.3-0.1-2.8-0.1-4.7-0.1c-1.8,0-3.2,0-4.3,0.1V102.9z M70.3,84.2l-4.1,9.9c1.2,0.1,2.5,0.1,3.9,0.1c1.5,0,2.9,0,4.3-0.1
				L70.3,84.2z"/>
			<path class="st0" d="M88.5,104.7v-1.6l1.2-0.1c0.9-0.1,1.5-0.2,1.8-0.5c0.2-0.3,0.4-1.2,0.4-2.7c0.1-3.2,0.1-6.6,0.1-10.3
				c0-2,0-4.2,0-6.7c0-1.5-0.1-2.4-0.3-2.8c-0.1-0.2-0.2-0.3-0.4-0.4s-1.1-0.2-2.7-0.3v-1.6c1.6,0,3.1,0.1,4.6,0.1
				c1.7,0,3.4,0,5-0.1c0.7,1.6,1.4,3.3,2.2,4.9c0.5,1.1,2.9,6,7,14.6c4.4-8.8,7.5-15.3,9.2-19.5c1.5,0.1,3,0.1,4.4,0.1
				c1.6,0,3.2,0,4.7-0.1v1.6c-1.7,0.1-2.6,0.3-2.9,0.4c-0.2,0.2-0.4,0.8-0.4,1.8c-0.1,1.6-0.1,4.7-0.1,9.3c0,2.3,0,4.7,0.1,7.3
				c0,2.6,0.1,4,0.3,4.3c0.1,0.2,0.2,0.3,0.4,0.4c0.2,0.1,1.1,0.2,2.7,0.4v1.6c-2.1-0.1-4-0.1-5.6-0.1c-1.7,0-3.9,0-6.7,0.1v-1.6
				l1.1,0c0.9,0,1.5-0.2,1.7-0.4c0.2-0.2,0.4-0.8,0.4-1.7c0.1-0.9,0.1-3.1,0.1-6.4V82.9c-2,4-4.5,9.2-7.6,15.7
				c-1.3,2.7-2.3,4.8-3,6.5h-1.3c-1-2.2-2.3-5-3.9-8.4l-6.7-13.8v2.6c0,7.3,0,12.3,0.1,15c0,1.1,0.2,1.8,0.4,2.1
				c0.3,0.3,1.2,0.4,2.9,0.5v1.6c-1.3-0.1-2.6-0.1-3.9-0.1C91.7,104.5,90,104.6,88.5,104.7z"/>
			<path class="st0" d="M128,102.9c1.2-0.1,2-0.2,2.2-0.4c0.2-0.1,0.5-0.6,0.9-1.5c0.8-1.7,1.8-4,3-7l6.8-16.8h2.8l8.7,20.8
				c1.1,2.6,1.8,4.1,2.1,4.3c0.3,0.3,1.1,0.4,2.4,0.5v1.8c-2.1-0.1-4.1-0.1-6-0.1c-2.2,0-4.4,0-6.4,0.1v-1.8
				c1.5-0.1,2.4-0.1,2.7-0.3c0.2-0.1,0.4-0.3,0.4-0.6c0-0.2-0.3-1.1-0.8-2.5l-1.3-3.2c-1.6,0-3.4-0.1-5.4-0.1c-1.7,0-3.3,0-4.7,0.1
				l-0.9,2.2c-0.2,0.6-0.5,1.5-0.8,2.6c-0.1,0.3-0.1,0.5-0.1,0.7c0,0.3,0.1,0.5,0.4,0.6c0.3,0.1,1.2,0.2,2.7,0.4v1.8
				c-1.3-0.1-2.8-0.1-4.7-0.1c-1.8,0-3.2,0-4.3,0.1V102.9z M140.7,84.2l-4.1,9.9c1.2,0.1,2.5,0.1,3.9,0.1c1.5,0,2.9,0,4.3-0.1
				L140.7,84.2z"/>
			<path class="st0" d="M159,104.7v-1.6c1.6-0.1,2.5-0.2,2.8-0.3c0.2-0.1,0.3-0.3,0.4-0.5c0.1-0.3,0.2-1.4,0.3-3.3
				c0.1-3.1,0.1-5.4,0.1-7l0-8.2c0-2.2-0.1-3.4-0.2-3.8c-0.1-0.2-0.2-0.3-0.4-0.4c-0.3-0.2-1.2-0.3-2.9-0.4v-1.6
				c2,0.1,3.5,0.1,4.5,0.1c1.1,0,2.3,0,3.7-0.1c3,3.8,6.3,7.9,10.1,12.4c2.5,3,4.7,5.4,6.5,7.4v-7.7c0-2.9,0-5.4-0.1-7.5
				c-0.1-1.3-0.2-2-0.3-2.3c-0.1-0.2-0.2-0.3-0.4-0.3c-0.2-0.1-1.1-0.2-2.7-0.3v-1.6c1.4,0.1,2.8,0.1,4.2,0.1c1.9,0,3.6,0,5.2-0.1
				v1.6c-1.4,0.1-2.3,0.2-2.6,0.3c-0.2,0.1-0.3,0.2-0.4,0.3c-0.1,0.1-0.2,0.3-0.2,0.4c-0.1,0.3-0.1,1.3-0.2,3l-0.1,7.7l0,7.8
				c0,2.1,0,4.2,0.1,6.3l-0.3,0.3c-1.6-0.3-2.7-0.5-3.3-0.6c-3.3-3.7-7.3-8.3-12-13.8c-2.4-2.8-4.3-5.2-5.7-7.1v7.5
				c0,2,0,4.5,0.1,7.4c0,2.1,0.1,3.3,0.3,3.7c0.1,0.1,0.1,0.3,0.3,0.3c0.2,0.1,1.2,0.3,2.8,0.4v1.6c-2.1-0.1-3.6-0.1-4.5-0.1
				C163,104.5,161.4,104.6,159,104.7z"/>
			<path class="st0" d="M197.3,104.7v-1.6c0.7,0,1.5-0.1,2.3-0.2c0.4-0.1,0.6-0.2,0.8-0.3c0.2-0.1,0.3-0.4,0.3-0.8
				c0.1-0.6,0.2-2.6,0.2-6.1c0-2.5,0.1-5.1,0.1-7.7c0-5.1,0-7.7,0-7.8c0-0.1-0.5-0.1-1.4-0.1c-1.8,0-3.3,0.1-4.6,0.2
				c-0.7,0.1-1.2,0.1-1.3,0.2c-0.1,0.1-0.2,0.2-0.2,0.3c-0.1,0.2-0.2,1.3-0.3,3.4h-1.7c0-2.5,0-4.6-0.2-6.4l0.2-0.2
				c4.1,0.2,8,0.3,11.9,0.3c3.8,0,8.1-0.1,12.9-0.3l0.2,0.3c-0.2,1.8-0.4,3.8-0.5,6.2h-1.6c-0.1-2.2-0.2-3.4-0.3-3.5
				c-0.1-0.1-0.3-0.2-0.6-0.3c-1-0.2-3.1-0.3-6.2-0.3c-0.3,0-0.4,0-0.5,0.1c-0.1,0.1-0.1,0.4-0.1,1l-0.1,13c0,3.8,0,6.1,0.1,6.9
				c0.1,0.9,0.2,1.4,0.5,1.6c0.2,0.1,1.2,0.3,3.1,0.4v1.6c-1.9-0.1-3.9-0.1-6-0.1C201.3,104.5,199,104.6,197.3,104.7z"/>
			<path class="st0" d="M219.7,104.7v-1c0.7-0.3,1.3-0.7,1.9-1.1c0.3-2,0.4-6.2,0.4-12.7c0-4.4,0-7.3-0.1-8.7c0-0.8-0.2-1.2-0.4-1.4
				c-0.2-0.2-1.2-0.4-2.9-0.5v-1.6c3,0.1,5.4,0.2,7.2,0.2l10.6-0.2c1.1,0,2.1,0,3,0.1l0.1,0.2c-0.3,1.4-0.5,3.3-0.6,5.7h-1.5
				c-0.1-1.9-0.1-2.9-0.2-3c-0.1-0.1-0.4-0.3-0.9-0.4c-1.1-0.2-2.7-0.3-4.9-0.3c-1.1,0-2.3,0-3.8,0.1c-0.2,4-0.3,7.2-0.3,9.5
				c1.4,0.1,2.7,0.1,3.9,0.1c1.8,0,2.9-0.1,3.2-0.2c0.2-0.1,0.4-0.3,0.5-0.6c0.1-0.2,0.2-1,0.3-2.4h1.7c-0.1,2.2-0.1,3.6-0.1,4.3
				l0.1,4.4h-1.7c-0.1-1.7-0.2-2.7-0.3-2.9c-0.1-0.2-0.3-0.3-0.5-0.3c-0.6-0.1-2.1-0.2-4.4-0.2c-0.7,0-1.5,0-2.5,0.1
				c0,0.7,0,1.4,0,2.1c0,3.7,0.1,6.5,0.2,8.5l3.8,0.1c2.2,0,4.2-0.1,6-0.3c0.3-1.2,0.6-2.5,0.9-4.1h1.6c-0.3,2.3-0.5,4.5-0.5,6.6
				c-1.2,0.1-2.3,0.1-3.4,0.1c-0.7,0-2.1,0-4.2-0.1c-1.9,0-3.7-0.1-5.4-0.1C224.4,104.5,222.1,104.6,219.7,104.7z"/>
			<path class="st0" d="M253.1,104.7v-2.1c2-0.2,3.1-0.3,3.4-0.5c0.2-0.1,0.4-0.3,0.5-0.5c0.2-0.4,0.3-2.2,0.4-5.2s0.1-6,0.1-8.9
				c0-5.3-0.1-9.2-0.2-11.5c-0.1-2.3-0.3-3.6-0.5-3.8c-0.2-0.3-1-0.4-2.2-0.5l-1.5-0.1v-2.1l2.8,0.1c1.8,0.1,3.2,0.1,4.2,0.1
				c1.4,0,3.7,0,6.9-0.1c1.7,0,3-0.1,3.8-0.1c3,0,5.2,0.3,6.7,0.9c1.4,0.6,2.5,1.4,3.3,2.6c0.7,1.2,1.1,2.6,1.1,4.3
				c0,3.1-1.1,5.7-3.3,7.8c-2.2,2.1-5,3.1-8.4,3.1c-0.4,0-0.9,0-1.4-0.1c-0.5-0.1-1-0.2-1.6-0.3c-0.3-0.6-0.6-1.2-0.9-1.7l0.6-0.6
				c0.4,0.1,0.7,0.1,1,0.2c0.3,0,0.6,0.1,0.8,0.1c1.7,0,3.1-0.6,4.1-1.7c1.1-1.2,1.6-2.8,1.6-4.9c0-2.3-0.6-4.1-1.7-5.2
				c-1.1-1.1-2.7-1.7-4.9-1.7c-0.9,0-1.9,0.1-3.1,0.4c-0.2,5.2-0.3,9.5-0.3,13.1c0,1.2,0.1,5,0.2,11.5c0.1,2.6,0.1,4,0.3,4.4
				c0.1,0.3,0.2,0.5,0.5,0.6c0.4,0.2,1.8,0.4,4.3,0.5v2.1c-3-0.1-5.5-0.2-7.5-0.2C261.4,104.5,258.4,104.6,253.1,104.7z"/>
			<path class="st0" d="M285.3,104.7v-1c0.7-0.3,1.3-0.7,1.9-1.1c0.3-2,0.4-6.2,0.4-12.7c0-4.4,0-7.3-0.1-8.7c0-0.8-0.2-1.2-0.4-1.4
				c-0.2-0.2-1.2-0.4-2.9-0.5v-1.6c3,0.1,5.4,0.2,7.2,0.2l10.6-0.2c1.1,0,2.1,0,3,0.1l0.1,0.2c-0.3,1.4-0.5,3.3-0.6,5.7H303
				c-0.1-1.9-0.1-2.9-0.2-3c-0.1-0.1-0.4-0.3-0.9-0.4c-1.1-0.2-2.7-0.3-4.9-0.3c-1.1,0-2.3,0-3.8,0.1c-0.2,4-0.3,7.2-0.3,9.5
				c1.4,0.1,2.7,0.1,3.9,0.1c1.8,0,2.9-0.1,3.2-0.2c0.2-0.1,0.4-0.3,0.5-0.6c0.1-0.2,0.2-1,0.3-2.4h1.7c-0.1,2.2-0.1,3.6-0.1,4.3
				l0.1,4.4h-1.7c-0.1-1.7-0.2-2.7-0.3-2.9c-0.1-0.2-0.3-0.3-0.5-0.3c-0.6-0.1-2.1-0.2-4.4-0.2c-0.7,0-1.5,0-2.5,0.1
				c0,0.7,0,1.4,0,2.1c0,3.7,0.1,6.5,0.2,8.5l3.8,0.1c2.2,0,4.2-0.1,6-0.3c0.3-1.2,0.6-2.5,0.9-4.1h1.6c-0.3,2.3-0.5,4.5-0.5,6.6
				c-1.2,0.1-2.3,0.1-3.4,0.1c-0.7,0-2.1,0-4.2-0.1c-1.9,0-3.7-0.1-5.4-0.1C289.9,104.5,287.7,104.6,285.3,104.7z"/>
			<path class="st0" d="M308.2,104.7v-1.6c1.5-0.1,2.4-0.3,2.6-0.4c0.1-0.1,0.2-0.2,0.3-0.4c0.1-0.3,0.2-1.4,0.3-3.1
				c0.1-2.8,0.1-4.9,0.1-6.5c0-2.1,0-4.9-0.1-8.2c-0.1-2.5-0.2-4-0.4-4.5c-0.1-0.2-0.2-0.3-0.3-0.4c-0.2-0.1-1-0.3-2.5-0.4v-1.6
				c2.7,0.1,4.4,0.1,5.2,0.1l9.7-0.1c2.1,0,3.6,0.2,4.6,0.6s1.7,1.1,2.3,2c0.6,0.9,0.8,1.9,0.8,3.2c0,1.5-0.4,2.9-1.3,4.1
				c-0.9,1.2-2.5,2.2-4.7,3.1l4.1,6.2l3.2,4.8c0.6,0.8,1.1,1.2,1.4,1.4c0.3,0.2,0.8,0.2,1.5,0.3v1.5l-1.1,0c-3.3,0-5.4,0.1-6.3,0.1
				c-1.1-1.8-2.8-4.4-5-7.8l-4-6.1c0.1-0.2,0.2-0.5,0.3-0.7c0.5,0.1,0.9,0.1,1.1,0.1c1.2,0,2.4-0.5,3.5-1.5c1.2-1,1.7-2.4,1.7-4.1
				c0-1.6-0.5-2.8-1.4-3.6c-0.9-0.9-2.3-1.3-4.1-1.3c-0.6,0-1.4,0-2.4,0.1l-0.1,5.7l-0.2,7.2c0,1.6,0.1,3.7,0.2,6.3
				c0.1,1.9,0.2,3,0.3,3.2c0.1,0.2,0.2,0.3,0.4,0.4c0.3,0.2,1.1,0.3,2.6,0.3v1.6c-2.3-0.1-4.4-0.1-6.2-0.1
				C312.4,104.5,310.4,104.6,308.2,104.7z"/>
			<path class="st0" d="M336.5,79.2v-1.6c2.6,0.1,4.9,0.1,6.9,0.1c1.3,0,3.1,0,5.4-0.1v1.6c-1.2,0-2,0.1-2.5,0.3
				c-0.2,0.1-0.3,0.2-0.4,0.3c-0.1,0.2-0.2,0.5-0.3,0.9c-0.1,0.7-0.1,2.8-0.2,6.2c0,2.4-0.1,4.8-0.1,7.3c0,2,0.2,3.5,0.7,4.5
				c0.5,0.9,1.1,1.7,2,2.1c1.3,0.7,2.7,1,4.2,1c2.1,0,3.7-0.3,4.8-1c1.1-0.7,1.8-1.6,2.2-2.8c0.4-1.2,0.6-3.8,0.6-7.9l0-7.2
				c0-1.6-0.1-2.6-0.2-2.9c-0.1-0.2-0.2-0.3-0.4-0.4c-0.3-0.2-1.3-0.3-2.8-0.4v-1.6c1.7,0.1,3.2,0.1,4.6,0.1c1.2,0,2.7,0,4.5-0.1
				v1.6c-1.3,0-2.1,0.1-2.4,0.4c-0.3,0.3-0.5,1-0.6,2.2c-0.1,2.9-0.2,6.2-0.2,9.8c0,2.3,0,3.9-0.1,4.6c-0.1,1.8-0.6,3.3-1.3,4.6
				c-0.7,1.3-1.9,2.3-3.6,3.1c-1.7,0.8-3.8,1.2-6.2,1.2c-2.6,0-4.7-0.4-6.5-1.2c-1.7-0.8-2.9-1.8-3.7-2.9c-0.7-1.2-1.1-2.9-1.1-5.2
				l0.1-8.7c0-0.7,0-2.5-0.1-5.3c0-0.9-0.1-1.5-0.3-1.8c-0.1-0.2-0.3-0.3-0.5-0.4C338.8,79.4,338,79.3,336.5,79.2z M350,75.6h-1.9
				l4.5-4.3c1.1-1,1.8-1.6,2.1-1.8c0.4-0.2,0.7-0.3,1.1-0.3c0.5,0,0.9,0.1,1.2,0.4c0.3,0.3,0.5,0.7,0.5,1.1c0,0.4-0.1,0.7-0.4,1
				c-0.3,0.3-1,0.8-2.4,1.4L350,75.6z"/>
		</g>
	</g>
	<polygon class="st0" points="32.6,60.5 77.7,0 288,0 287,2 78.7,2 35.1,60.5 	"/>
	<polygon class="st0" points="183.3,273.6 322.5,116.5 325.2,116.5 183.3,276.6 	"/>
</g>
</svg>
