<?xml version="1.0" encoding="utf-8"?>
<!-- Generator: Adobe Illustrator 23.0.6, SVG Export Plug-In . SVG Version: 6.00 Build 0)  -->
<svg version="1.1" id="Capa_1" xmlns="http://www.w3.org/2000/svg" xmlns:xlink="http://www.w3.org/1999/xlink" x="0px" y="0px"
	 viewBox="0 0 500 500" style="enable-background:new 0 0 500 500;" xml:space="preserve">
<style type="text/css">
	.st0{fill:#1A1A1A;}
</style>
<g>
	<path class="st0" d="M499,458.9L351.9,311.8c24.5-32.6,39.1-72.9,39.1-116.6C391,87.5,303.4,0,195.8,0C88.2,0,0.7,87.5,0.7,195.1
		c0,107.6,87.5,195.1,195.1,195.1c43.7,0,84-14.7,116.6-39.1l147.1,147.1L499,458.9z M19.3,195.1c0-97.4,79.2-176.5,176.5-176.5
		c97.3,0,176.5,79.2,176.5,176.5c0,97.3-79.2,176.5-176.5,176.5C98.5,371.7,19.3,292.5,19.3,195.1L19.3,195.1z M331.2,335.4
		c1.7-1.6,3.3-3.2,4.9-4.9c1.4-1.4,2.8-2.7,4.1-4.1l132.5,132.5L459.6,472L327.1,339.5C328.5,338.2,329.8,336.8,331.2,335.4
		L331.2,335.4z M331.2,335.4"/>
</g>
</svg>
